PathFileType	4	(X/Y/Z)	HSS_walk3.trc
DataRate	CameraRate	NumFrames	NumMarkers	Units	OrigDataRate	OrigDataStartFrame	OrigNumFrames
120.0	120.0	8	44	mm	120.0	249	992
Frame#	Time		R.Shoulder		Offset		L.Shoulder		R.Elbow		R.Wrist.Radial		R.Wrist		R.Hand		L.Elbow		L.Wrist.Radial		L.Wrist		L.Hand		R.Hip		V.Sacral		L.PSIS		L.Hip		R.Thigh.Upper		R.Thigh.Front		R.Thigh.Rear		X.Shell.Lower.Thigh.Right		R.Knee.Lateral		R.Shank.Upper		R.Shank.Front		R.Shank.Rear		X.Shell.Lower.Shank.Right		R.Ankle.Lateral		R.Heel		R.Toe		L.Thigh.Upper		L.Thigh.Front		L.Thigh.Rear		X.Shell.Lower.Thigh.Left		L.Knee.Lateral		L.Shank.Upper		L.Shank.Front		L.Shank.Rear		X.Shell.Lower.Shank.Left		L.Ankle.Lateral		L.Heel		L.Toe		R.Troc		L.Troc		R.PSIS		L.ASIS		R.ASIS
			X1	Y1	Z1	X2	Y2	Z2	X3	Y3	Z3	X4	Y4	Z4	X5	Y5	Z5	X6	Y6	Z6	X7	Y7	Z7	X8	Y8	Z8	X9	Y9	Z9	X10	Y10	Z10	X11	Y11	Z11	X12	Y12	Z12	X13	Y13	Z13	X14	Y14	Z14	X15	Y15	Z15	X16	Y16	Z16	X17	Y17	Z17	X18	Y18	Z18	X19	Y19	Z19	X20	Y20	Z20	X21	Y21	Z21	X22	Y22	Z22	X23	Y23	Z23	X24	Y24	Z24	X25	Y25	Z25	X26	Y26	Z26	X27	Y27	Z27	X28	Y28	Z28	X29	Y29	Z29	X30	Y30	Z30	X31	Y31	Z31	X32	Y32	Z32	X33	Y33	Z33	X34	Y34	Z34	X35	Y35	Z35	X36	Y36	Z36	X37	Y37	Z37	X38	Y38	Z38	X39	Y39	Z39	X40	Y40	Z40	X41	Y41	Z41	X42	Y42	Z42	X43	Y43	Z43	X44	Y44	Z44

249	2.06667	-1845.86206	1477.98816	-19.87108	-1948.04468	1377.34314	-308.33731	-1836.35510	1487.46167	-393.81592	-1849.36182	1111.07092	22.12241	-1730.60278	894.58978	76.34383	-1694.47144	905.20636	12.05263	-1677.06946	825.87592	68.54019	-1833.13770	1122.31934	-442.59012	-1683.07874	917.21234	-408.04279	-1707.07471	917.87756	-476.08856	-1658.09045	847.95325	-457.04874	-1784.42004	1037.75195	-55.52518	-1901.23145	1021.69196	-207.42891	-1899.44434	1027.60303	-247.84921	-1777.61462	1035.69604	-352.13052	-1749.12000	692.62415	-22.58937	-1717.19666	654.89948	-39.61873	-1773.46533	654.66882	-14.30403	-1747.34680	621.62372	-33.22561	-1813.65161	515.76105	-47.06548	-1831.52271	368.55649	-0.32758	-1806.53735	324.25742	-25.57191	-1864.92773	333.19528	-11.31995	-1844.02734	292.47260	-21.66711	-1862.86255	70.05295	-72.88531	-1906.87695	32.90812	-121.04373	-1708.59521	31.79468	-73.65009	-1740.30920	689.81012	-369.05362	-1724.15442	640.01886	-344.00180	-1771.81665	655.23547	-382.70291	-1748.91309	619.29449	-368.67407	-1824.05103	506.85013	-348.31894	-1862.99048	306.39679	-386.60120	-1834.91443	283.04138	-366.49576	-1894.13062	268.25183	-372.03506	-1872.01990	237.26471	-372.91623	-1862.01831	72.31070	-322.78958	-1917.29675	34.83248	-276.53137	-1717.72717	32.15731	-312.38367	-1773.10913	879.44745	-18.80943	-1772.59119	890.29034	-390.14957	-1902.79431	1026.80042	-162.22929	-1713.55933	998.26263	-310.92679	-1724.19287	1000.66791	-85.50066
250	2.07500	-1845.99170	1477.97314	-19.89684	-1948.12109	1377.32983	-308.34369	-1836.34802	1487.41284	-393.76685	-1849.47632	1111.11365	22.10991	-1730.89172	894.63245	76.54758	-1694.78113	905.15045	12.26715	-1677.36475	825.85748	68.70431	-1833.09741	1122.29956	-442.56021	-1682.98718	917.34332	-407.87656	-1706.97339	917.88354	-475.98093	-1657.91785	847.98065	-456.84454	-1784.52380	1037.70630	-55.45536	-1901.33435	1021.67407	-207.37877	-1899.53394	1027.60706	-247.84157	-1777.60388	1035.74146	-352.05762	-1749.19336	692.61310	-22.55462	-1717.25854	654.90686	-39.61199	-1773.55176	654.67499	-14.27034	-1747.44592	621.61169	-33.22322	-1813.73755	515.79230	-47.05229	-1831.56946	368.57428	-0.30657	-1807.36670	324.02255	-26.04321	-1864.98840	333.18460	-11.33144	-1844.08069	292.48938	-21.62951	-1862.87073	70.04433	-72.88843	-1906.88269	32.89183	-121.01411	-1708.61060	31.82039	-73.71983	-1740.38782	689.81696	-369.01212	-1724.23901	640.00873	-344.01474	-1771.95044	655.24524	-382.63452	-1749.00232	619.32050	-368.65686	-1824.12329	506.86456	-348.28748	-1863.07202	306.36725	-386.61609	-1834.95874	283.04993	-366.42499	-1894.15991	268.22427	-372.03287	-1872.05615	237.26344	-372.94803	-1862.02051	72.33734	-322.82492	-1917.29956	34.82561	-276.54169	-1717.73145	32.22046	-312.36835	-1773.20715	879.46417	-18.77333	-1772.67395	890.31946	-390.03662	-1902.94055	1026.78516	-162.21049	-1713.66919	998.24689	-310.93732	-1724.18750	1000.71759	-85.37048
251	2.08333	-1846.12109	1477.99121	-19.93481	-1948.19824	1377.29724	-308.37125	-1836.38904	1487.43066	-393.78369	-1849.60510	1111.17139	22.12149	-1731.18201	894.66992	76.69975	-1695.06958	905.14655	12.50540	-1677.59033	825.85144	68.86787	-1833.08582	1122.28528	-442.53555	-1682.82385	917.45441	-407.83835	-1706.85071	917.90179	-475.85165	-1657.78796	848.00323	-456.71628	-1784.60352	1037.74353	-55.44648	-1901.45728	1021.67737	-207.33018	-1899.61597	1027.62354	-247.77469	-1777.67529	1035.74487	-351.97314	-1749.29285	692.65851	-22.50733	-1717.33875	654.90759	-39.57536	-1773.61194	654.69885	-14.16730	-1747.51367	621.65100	-33.20546	-1813.78516	515.77600	-47.03269	-1831.62744	368.56290	-0.28233	-1806.63232	324.28363	-25.45259	-1865.01953	333.17862	-11.32002	-1844.08142	292.46509	-21.63596	-1862.86133	70.04816	-72.82391	-1906.86267	32.89574	-121.04404	-1708.60510	31.81394	-73.69081	-1740.51782	689.79071	-369.00803	-1724.33716	639.99982	-343.97061	-1772.00525	655.26666	-382.66190	-1749.06641	619.31543	-368.64395	-1824.18481	506.86389	-348.25818	-1863.07788	306.40323	-386.60727	-1834.96448	283.00479	-366.38852	-1894.21997	268.24960	-372.03467	-1872.11023	237.24626	-372.92258	-1862.06055	72.36963	-322.82590	-1917.30322	34.82677	-276.53094	-1717.76233	32.20285	-312.42661	-1773.34985	879.43500	-18.69387	-1772.74902	890.38953	-390.02914	-1903.02893	1026.81104	-162.18718	-1713.74255	998.24896	-310.80466	-1724.19275	1000.72961	-85.37487
252	2.09167	-1846.25549	1477.97534	-19.94058	-1948.28418	1377.28479	-308.35602	-1836.44275	1487.40479	-393.74225	-1849.77954	1111.22778	22.10420	-1731.41296	894.68610	76.77675	-1695.34033	905.15417	12.72167	-1677.78735	825.85345	69.01173	-1833.03418	1122.23340	-442.51425	-1682.80981	917.37598	-407.82019	-1706.71716	917.94641	-475.78766	-1657.61987	848.06677	-456.59872	-1784.63086	1037.79468	-55.45449	-1901.60596	1021.67120	-207.26755	-1899.69531	1027.61450	-247.71947	-1777.87354	1035.76184	-352.00781	-1749.32727	692.63275	-22.52184	-1717.42712	654.93530	-39.55963	-1773.63489	654.69977	-14.20221	-1747.58472	621.64355	-33.18508	-1813.85071	515.82092	-46.87922	-1831.67444	368.57541	-0.20142	-1806.67004	324.27344	-25.43785	-1865.08081	333.19031	-11.27971	-1844.11279	292.46503	-21.60948	-1862.86121	70.01826	-72.85488	-1906.87939	32.88225	-121.03224	-1708.61853	31.81937	-73.72039	-1740.59753	689.79614	-368.98938	-1724.40601	639.99316	-343.96332	-1772.08154	655.31055	-382.63519	-1749.14001	619.36584	-368.63910	-1824.22009	506.88644	-348.29919	-1863.14160	306.38452	-386.58713	-1835.00598	283.03888	-366.37286	-1894.24243	268.23877	-372.00430	-1872.12891	237.23294	-372.89734	-1862.05017	72.34441	-322.80789	-1917.30066	34.82618	-276.54614	-1717.71472	32.17420	-312.39227	-1773.48108	879.43256	-18.65838	-1772.82703	890.43097	-390.10660	-1903.11255	1026.79688	-162.14281	-1713.86646	998.23749	-310.78134	-1724.53381	1000.68030	-85.32925
253	2.10000	-1846.41882	1477.97144	-19.89763	-1948.38574	1377.26355	-308.36581	-1836.50012	1487.40161	-393.78299	-1849.95117	1111.25708	22.08966	-1731.61365	894.73328	76.90628	-1695.53296	905.16638	12.91992	-1678.07666	825.86951	69.18439	-1832.99817	1122.20422	-442.48715	-1683.03882	917.51843	-407.70120	-1706.59790	917.98407	-475.69305	-1657.44897	848.14575	-456.51019	-1784.76709	1037.76843	-55.45272	-1901.70264	1021.66583	-207.23647	-1899.82703	1027.62573	-247.66025	-1777.99658	1035.76270	-351.98090	-1749.39014	692.65259	-22.57591	-1717.52856	654.95410	-39.52202	-1773.70483	654.73944	-14.07157	-1747.68652	621.68372	-33.13000	-1813.89600	515.59845	-46.72381	-1831.69763	368.56381	-0.22114	-1806.72620	324.30356	-25.34009	-1865.10083	333.17529	-11.29862	-1844.16016	292.47693	-21.64467	-1862.83875	70.04337	-72.77225	-1906.88208	32.87435	-121.02763	-1708.61414	31.80493	-73.67228	-1740.68872	689.80762	-368.88757	-1724.47083	640.01166	-343.92233	-1772.13208	655.31036	-382.64337	-1749.19324	619.38721	-368.61737	-1824.28040	506.87836	-348.26535	-1863.19629	306.40063	-386.58780	-1835.01550	283.03598	-366.37088	-1894.26416	268.22470	-372.02756	-1872.14832	237.23381	-372.89529	-1862.06433	72.34864	-322.81177	-1917.29138	34.81985	-276.53827	-1717.71863	32.15625	-312.42404	-1773.59863	879.41650	-18.59317	-1772.93811	890.46826	-390.04550	-1903.28345	1026.79285	-162.13943	-1713.97205	998.24841	-310.71994	-1724.60779	1000.80585	-85.20502
254	2.10833	-1846.55310	1478.02283	-19.93656	-1948.48926	1377.23242	-308.38522	-1836.54700	1487.37842	-393.77341	-1850.13745	1111.26758	22.10634	-1731.82324	894.74182	76.98545	-1695.68152	905.15753	13.05071	-1678.36108	825.86536	69.31178	-1832.98767	1122.19458	-442.44165	-1682.84265	917.53845	-407.59570	-1706.46472	918.01306	-475.57480	-1657.28528	848.13562	-456.31104	-1784.93408	1037.80933	-55.36044	-1901.81921	1021.67493	-207.21158	-1899.91492	1027.62158	-247.60341	-1778.03748	1035.74341	-351.87311	-1749.51270	692.66736	-22.44907	-1717.59778	654.96161	-39.54116	-1773.73730	654.77820	-14.02897	-1747.72375	621.70923	-33.08323	-1813.92236	515.61267	-46.66717	-1831.75134	368.56531	-0.19205	-1806.77258	324.31546	-25.29683	-1865.15051	333.17490	-11.25674	-1844.16931	292.42401	-21.61759	-1862.86609	70.02711	-72.83067	-1906.87268	32.87771	-121.04671	-1708.61853	31.80800	-73.69745	-1740.75085	689.82239	-368.89267	-1724.56250	640.03632	-343.93771	-1772.18652	655.32861	-382.61581	-1749.26672	619.39410	-368.56561	-1824.30383	506.88477	-348.26617	-1863.15381	306.34625	-386.53632	-1835.04871	283.06537	-366.39835	-1894.31201	268.21826	-371.99533	-1872.18689	237.23502	-372.88675	-1862.04944	72.35151	-322.82083	-1917.29456	34.81134	-276.54382	-1717.74243	32.18779	-312.39624	-1773.72119	879.40881	-18.53013	-1773.05115	890.47491	-389.95499	-1903.41833	1026.81689	-162.09885	-1714.11169	998.25708	-310.71817	-1724.74585	1000.80176	-85.14199
255	2.11667	-1846.65149	1478.05334	-19.96374	-1948.57471	1377.20898	-308.38828	-1836.65234	1487.36475	-393.75873	-1850.32996	1111.29126	22.15422	-1732.04163	894.77136	77.13108	-1695.83691	905.11462	13.10158	-1678.55933	825.83069	69.41097	-1832.95227	1122.18433	-442.40469	-1682.33569	917.59222	-407.37311	-1706.33350	918.00800	-475.50406	-1657.12549	848.21283	-456.21317	-1785.04358	1037.82190	-55.36236	-1901.92334	1021.65802	-207.20059	-1900.02832	1027.61084	-247.53650	-1778.02966	1035.78284	-351.77722	-1749.59253	692.68958	-22.42505	-1717.70447	654.97754	-39.41173	-1773.80164	654.82947	-13.89382	-1747.78931	621.73224	-33.02610	-1813.95032	515.77740	-46.84998	-1831.82251	368.57562	-0.14084	-1806.80872	324.28525	-25.23584	-1865.18286	333.15372	-11.21301	-1844.23730	292.46680	-21.56704	-1862.86621	70.04885	-72.83012	-1906.87598	32.87890	-121.01870	-1708.61694	31.81448	-73.67874	-1740.83630	689.79016	-368.76553	-1724.60034	640.00140	-343.91351	-1772.21985	655.33838	-382.60355	-1749.32727	619.40741	-368.58279	-1824.34558	506.86743	-348.23251	-1863.23108	306.35693	-386.55115	-1835.08655	283.03345	-366.33832	-1894.34167	268.22540	-371.97046	-1872.19800	237.22572	-372.87955	-1862.05029	72.30003	-322.80347	-1917.30286	34.81279	-276.53799	-1717.73938	32.20275	-312.41238	-1773.84802	879.41644	-18.49037	-1773.19067	890.50739	-389.97186	-1903.51184	1026.80457	-162.05412	-1714.23022	998.27045	-310.61487	-1724.87769	1000.80945	-85.09745
256	2.12500	-1846.76782	1478.06030	-19.94483	-1948.65601	1377.20105	-308.39267	-1836.66663	1487.36804	-393.77335	-1850.51648	1111.30566	22.17957	-1732.31079	894.76324	77.18058	-1696.01099	905.11176	13.26322	-1678.74060	825.81989	69.46671	-1832.91064	1122.14331	-442.38699	-1682.10229	917.63098	-407.24591	-1706.23914	918.04156	-475.43005	-1656.97607	848.26300	-456.14484	-1785.00781	1037.87219	-55.37080	-1902.00305	1021.65753	-207.16740	-1900.13098	1027.58459	-247.51173	-1778.20447	1035.73950	-351.74075	-1749.70447	692.68542	-22.44482	-1717.79065	654.97943	-39.40887	-1773.83533	654.81909	-13.91925	-1747.81970	621.74628	-33.05229	-1813.94287	515.76251	-46.89237	-1831.81152	368.54718	-0.18056	-1806.84937	324.26959	-25.32566	-1865.21643	333.13708	-11.24889	-1844.22461	292.41931	-21.56545	-1862.86438	70.04106	-72.83507	-1906.88257	32.87392	-121.01984	-1708.61414	31.82934	-73.66574	-1740.86792	689.82092	-368.77298	-1724.66687	639.99591	-343.85764	-1772.24365	655.34192	-382.58224	-1749.35815	619.42181	-368.54584	-1824.36365	506.85910	-348.21753	-1863.26013	306.37341	-386.53564	-1835.09827	283.02069	-366.34006	-1894.36487	268.19904	-371.97687	-1872.20667	237.22063	-372.87869	-1862.06775	72.31650	-322.79999	-1917.29626	34.80433	-276.54498	-1717.74158	32.17991	-312.39758	-1773.94519	879.43066	-18.45402	-1773.25049	890.47321	-389.81320	-1903.62329	1026.80493	-162.03093	-1714.30701	998.26843	-310.52777	-1724.97034	1000.83447	-85.05477
